<svg xmlns="http://www.w3.org/2000/svg" viewBox="0 0 1000 700"><defs><pattern id="grid" width="24" height="24" patternUnits="userSpaceOnUse"><path d="M24 0H0V24" stroke="#a3ada2" stroke-width=".5" fill="none" opacity=".4"/></pattern><pattern id="stone" width="28" height="28" patternUnits="userSpaceOnUse"><path d="M28 0H0V28" stroke="#a3ada2" stroke-width=".7" fill="none"/></pattern></defs><rect width="1000" height="700" fill="#f3f4eb"/><rect x="45" y="105" width="910" height="490" fill="url(#grid)"/><path d="M110 197H137V235H180V269H224V303H268V338L860 399V197H889" fill="none" stroke="#b3c3b8" stroke-width="13" stroke-linejoin="round"/><path d="M137 219H860V399L268 338V303H224V269H180V235H137Z" fill="#c8e1dd"/><path d="M110 197H137V235H180V269H224V303H268V338L860 399V197H889" fill="none" stroke="#3e665e" stroke-width="2" stroke-linejoin="round"/><path d="M137 219H860" stroke="#68a3a1"/><g stroke="#7d8d7c" fill="none"><path d="M137 460H860M137 442V474M860 422V474M914 197V399M900 197H929M900 399H929"/><path d="M233 303L180 365H73M588 372L546 535H339" stroke="#ac755a"/></g><g font-family="monospace" fill="#34443a"><text x="60" y="65" font-size="18">AERIS POOL / LONGITUDINAL SECTION</text><text x="500" y="494" text-anchor="middle" font-size="15">MODEL LENGTH · APPROX. 12.70 M</text><text x="929" y="300" font-size="12" transform="rotate(-90 929 300)">APPROX. 2.28 M</text><text x="630" y="207" font-size="12">WATERLINE</text><text x="64" y="391" font-size="11">THREE MOLDED STEPS</text><text x="331" y="561" font-size="11">ONE-PIECE SHELL · GENTLY SLOPING FLOOR</text><text x="60" y="639" font-size="12">3D MODEL SECTION · ILLUSTRATIVE THICKNESS</text><text x="940" y="639" text-anchor="end" font-size="12">SECTION / 02</text></g></svg>